<?xml version="1.0" standalone="no"?>
<!DOCTYPE svg PUBLIC "-//W3C//DTD SVG 20010904//EN"
 "http://www.w3.org/TR/2001/REC-SVG-20010904/DTD/svg10.dtd">
<svg version="1.0" xmlns="http://www.w3.org/2000/svg"
 width="180.000000pt" height="245.000000pt" viewBox="0 0 180.000000 245.000000"
 preserveAspectRatio="xMidYMid meet">

<g transform="translate(0.000000,245.000000) scale(0.100000,-0.100000)"
fill="#e12633" stroke="none">
<path d="M738 2435 c-338 -64 -607 -310 -703 -642 -48 -164 -44 -310 12 -473
97 -282 360 -702 735 -1172 61 -76 114 -138 118 -138 5 0 59 63 120 140 405
511 680 968 752 1252 17 69 20 101 15 198 -18 387 -271 703 -653 815 -112 33
-281 42 -396 20z m304 -474 c65 -32 121 -89 160 -163 30 -58 32 -71 33 -158 0
-84 -3 -101 -28 -152 -36 -74 -119 -150 -195 -178 -46 -18 -72 -21 -137 -18
-99 6 -160 33 -231 103 -69 67 -94 135 -94 254 0 78 3 95 31 149 37 74 110
143 182 172 72 28 211 24 279 -9z"/>
</g>
</svg>
